<svg id="visual" viewBox="0 0 1920 1080" width="1920" height="1080" xmlns="http://www.w3.org/2000/svg" xmlns:xlink="http://www.w3.org/1999/xlink" version="1.1"><rect x="0" y="0" width="1920" height="1080" fill="#005c6d"></rect><path d="M0 841L29.2 824.3C58.3 807.7 116.7 774.3 174.8 776C233 777.7 291 814.3 349.2 823.7C407.3 833 465.7 815 523.8 795.3C582 775.7 640 754.3 698.2 769.2C756.3 784 814.7 835 872.8 850.5C931 866 989 846 1047.2 834.5C1105.3 823 1163.7 820 1221.8 816.5C1280 813 1338 809 1396.2 814.8C1454.3 820.7 1512.7 836.3 1570.8 830.3C1629 824.3 1687 796.7 1745.2 800.5C1803.3 804.3 1861.7 839.7 1890.8 857.3L1920 875L1920 1081L1890.8 1081C1861.7 1081 1803.3 1081 1745.2 1081C1687 1081 1629 1081 1570.8 1081C1512.7 1081 1454.3 1081 1396.2 1081C1338 1081 1280 1081 1221.8 1081C1163.7 1081 1105.3 1081 1047.2 1081C989 1081 931 1081 872.8 1081C814.7 1081 756.3 1081 698.2 1081C640 1081 582 1081 523.8 1081C465.7 1081 407.3 1081 349.2 1081C291 1081 233 1081 174.8 1081C116.7 1081 58.3 1081 29.2 1081L0 1081Z" fill="#fa9137" stroke-linecap="round" stroke-linejoin="miter"></path></svg>