<svg id="visual" viewBox="0 0 1920 1080" width="1920" height="1080" xmlns="http://www.w3.org/2000/svg" xmlns:xlink="http://www.w3.org/1999/xlink" version="1.1"><rect x="0" y="0" width="1920" height="1080" fill="#005c6d"></rect><path d="M0 134L22.8 134C45.7 134 91.3 134 137 117.3C182.7 100.7 228.3 67.3 274 77.8C319.7 88.3 365.3 142.7 411.2 154.5C457 166.3 503 135.7 548.8 117.7C594.7 99.7 640.3 94.3 686 93.7C731.7 93 777.3 97 823 115.7C868.7 134.3 914.3 167.7 960 185.2C1005.7 202.7 1051.3 204.3 1097 174.8C1142.7 145.3 1188.3 84.7 1234 78.2C1279.7 71.7 1325.3 119.3 1371.2 137.2C1417 155 1463 143 1508.8 132.2C1554.7 121.3 1600.3 111.7 1646 115C1691.7 118.3 1737.3 134.7 1783 130C1828.7 125.3 1874.3 99.7 1897.2 86.8L1920 74L1920 0L1897.2 0C1874.3 0 1828.7 0 1783 0C1737.3 0 1691.7 0 1646 0C1600.3 0 1554.7 0 1508.8 0C1463 0 1417 0 1371.2 0C1325.3 0 1279.7 0 1234 0C1188.3 0 1142.7 0 1097 0C1051.3 0 1005.7 0 960 0C914.3 0 868.7 0 823 0C777.3 0 731.7 0 686 0C640.3 0 594.7 0 548.8 0C503 0 457 0 411.2 0C365.3 0 319.7 0 274 0C228.3 0 182.7 0 137 0C91.3 0 45.7 0 22.8 0L0 0Z" fill="#fa9137" stroke-linecap="round" stroke-linejoin="miter"></path></svg>